<svg width="478" height="468" viewBox="0 0 478 468" fill="none" xmlns="http://www.w3.org/2000/svg">
<g clip-path="url(#clip0_189_655)">
<path d="M363.578 278.753C432.5 202.937 461.509 141.746 472.353 96.876C478.627 70.9313 478.746 50.661 477.133 36.4748C476.509 30.9099 475.43 25.4029 473.907 20.007C473.256 17.7246 472.478 15.4787 471.576 13.2795C469.396 8.48252 466.557 6.40577 461.06 4.62152C459.483 4.12773 457.889 3.6887 456.28 3.30527C450.683 1.97657 444.99 1.06719 439.252 0.585022C424.613 -0.701978 403.7 -0.292477 377.112 6.08402C331.224 17.0235 269.024 45.3668 193.052 111.501L121.352 118.463H121.173C103.944 120.343 87.8853 127.916 75.643 139.932L4.48078 209.723C2.22685 211.945 0.741242 214.803 0.232941 217.895C-0.27536 220.987 0.219229 224.158 1.64713 226.96C3.07503 229.763 5.36438 232.056 8.19313 233.518C11.0219 234.981 14.2476 235.538 17.4167 235.112L74.0597 227.185C82.4247 226.015 91.7457 227.565 102.59 231.046C109.521 233.269 115.646 235.726 122.158 238.3L128.223 240.728C134.079 264.596 147.941 286.943 166.314 304.931C184.627 322.891 207.422 336.521 231.77 342.284L234.22 348.192C236.878 354.569 239.388 360.594 241.658 367.409C245.184 378.027 246.797 387.182 245.602 395.372L237.506 450.947C237.078 454.044 237.651 457.194 239.144 459.956C240.637 462.718 242.974 464.954 245.83 466.35C248.685 467.747 251.915 468.233 255.067 467.742C258.219 467.251 261.136 465.807 263.407 463.613L334.57 393.822C346.818 381.83 354.526 366.064 356.438 349.187L363.578 278.753ZM366.865 170.557C343.054 193.957 309.206 198.666 291.341 181.145C273.475 163.595 278.315 130.455 302.125 107.084C325.966 83.7135 359.784 79.0043 377.649 96.525C395.545 114.046 390.705 147.186 366.894 170.557H366.865Z" fill="#F97316"/>
<path d="M155.499 315.52C171.366 331.241 189.529 344.569 209.394 355.066C175.994 384.52 62.1401 414.385 58.4057 410.728C54.6415 407.014 80.4236 288.2 113.346 259.214C123.683 279.396 138.351 298.701 155.499 315.52Z" fill="#F97316"/>
</g>
<defs>
<clipPath id="clip0_189_655">
<rect width="478" height="468" fill="white"/>
</clipPath>
</defs>
</svg>
